<mxfile host="65bd71144e">
    <diagram id="ToPi5NqXSybOOjagKnuQ" name="Page-1">
        <mxGraphModel dx="2104" dy="701" grid="0" gridSize="10" guides="1" tooltips="1" connect="1" arrows="1" fold="1" page="0" pageScale="1" pageWidth="850" pageHeight="1100" math="0" shadow="0">
            <root>
                <mxCell id="0"/>
                <mxCell id="1" parent="0"/>
                <mxCell id="qUONc3NZkDFU0F-GtsOM-1" value="" style="rounded=0;whiteSpace=wrap;html=1;fillColor=#dae8fc;strokeColor=#6c8ebf;" parent="1" vertex="1">
                    <mxGeometry x="62.01" y="200" width="640" height="548" as="geometry"/>
                </mxCell>
                <mxCell id="qUONc3NZkDFU0F-GtsOM-2" value="" style="rounded=0;whiteSpace=wrap;html=1;fillColor=#f5f5f5;strokeColor=#666666;fontColor=#333333;" parent="1" vertex="1">
                    <mxGeometry x="87" y="275" width="590" height="265" as="geometry"/>
                </mxCell>
                <mxCell id="qUONc3NZkDFU0F-GtsOM-5" value="&lt;font style=&quot;font-size: 30px&quot;&gt;Management cluster&lt;/font&gt;" style="text;html=1;strokeColor=none;fillColor=none;align=center;verticalAlign=middle;whiteSpace=wrap;rounded=0;" parent="1" vertex="1">
                    <mxGeometry x="228.38" y="222" width="307.25" height="37" as="geometry"/>
                </mxCell>
                <mxCell id="qUONc3NZkDFU0F-GtsOM-6" value="&lt;font style=&quot;font-size: 26px&quot;&gt;Core controllers&lt;/font&gt;" style="text;html=1;strokeColor=none;fillColor=none;align=center;verticalAlign=middle;whiteSpace=wrap;rounded=0;" parent="1" vertex="1">
                    <mxGeometry x="255.75" y="291" width="238.5" height="37" as="geometry"/>
                </mxCell>
                <mxCell id="qUONc3NZkDFU0F-GtsOM-7" value="&lt;font style=&quot;font-size: 20px&quot;&gt;... controller&lt;/font&gt;" style="rounded=0;whiteSpace=wrap;html=1;fillColor=#fff2cc;strokeColor=#d6b656;" parent="1" vertex="1">
                    <mxGeometry x="410" y="406" width="217" height="117" as="geometry"/>
                </mxCell>
                <mxCell id="qUONc3NZkDFU0F-GtsOM-9" value="&lt;font style=&quot;font-size: 20px&quot;&gt;Machine controller&lt;/font&gt;" style="rounded=0;whiteSpace=wrap;html=1;fillColor=#fff2cc;strokeColor=#d6b656;" parent="1" vertex="1">
                    <mxGeometry x="273.51" y="372" width="217" height="117" as="geometry"/>
                </mxCell>
                <mxCell id="qUONc3NZkDFU0F-GtsOM-10" value="&lt;font style=&quot;font-size: 20px&quot;&gt;Cluster controller&lt;/font&gt;" style="rounded=0;whiteSpace=wrap;html=1;fillColor=#fff2cc;strokeColor=#d6b656;" parent="1" vertex="1">
                    <mxGeometry x="115" y="339.5" width="217" height="117" as="geometry"/>
                </mxCell>
                <mxCell id="qUONc3NZkDFU0F-GtsOM-11" value="&lt;font style=&quot;font-size: 20px&quot;&gt;... provider&lt;/font&gt;" style="rounded=0;whiteSpace=wrap;html=1;fillColor=#e1d5e7;strokeColor=#9673a6;" parent="1" vertex="1">
                    <mxGeometry x="410" y="609" width="217" height="117" as="geometry"/>
                </mxCell>
                <mxCell id="qUONc3NZkDFU0F-GtsOM-12" value="&lt;font style=&quot;font-size: 20px&quot;&gt;random provider&lt;/font&gt;" style="rounded=0;whiteSpace=wrap;html=1;fillColor=#e1d5e7;strokeColor=#9673a6;" parent="1" vertex="1">
                    <mxGeometry x="266.5" y="582" width="217" height="117" as="geometry"/>
                </mxCell>
                <mxCell id="qUONc3NZkDFU0F-GtsOM-13" value="&lt;font style=&quot;font-size: 20px&quot;&gt;metal-stack provider&lt;/font&gt;" style="rounded=0;whiteSpace=wrap;html=1;fillColor=#e1d5e7;strokeColor=#9673a6;" parent="1" vertex="1">
                    <mxGeometry x="115" y="554" width="217" height="117" as="geometry"/>
                </mxCell>
            </root>
        </mxGraphModel>
    </diagram>
</mxfile>